<?xml version="1.0" encoding="us-ascii" standalone="no"?><svg xmlns="http://www.w3.org/2000/svg" xmlns:xlink="http://www.w3.org/1999/xlink" contentStyleType="text/css" height="414px" preserveAspectRatio="none" style="width:569px;height:414px;background:#FFFFFF;" version="1.1" viewBox="0 0 569 414" width="569px" zoomAndPan="magnify"><defs/><g><ellipse cx="279.25" cy="20" fill="#222222" rx="10" ry="10" style="stroke:#222222;stroke-width:1.0;"/><polygon fill="#F1F1F1" points="212.75,50,345.75,50,357.75,62,345.75,74,212.75,74,200.75,62,212.75,50" style="stroke:#181818;stroke-width:0.5;"/><text fill="#000000" font-family="sans-serif" font-size="11" lengthAdjust="spacing" textLength="133" x="212.75" y="65.8081">command-line option is</text><text fill="#000000" font-family="monospace" font-size="11" lengthAdjust="spacing" textLength="14" x="186.75" y="58.986">-e</text><text fill="#000000" font-family="monospace" font-size="11" lengthAdjust="spacing" textLength="14" x="357.75" y="58.986">-d</text><rect fill="#F1F1F1" height="33.9688" rx="12.5" ry="12.5" style="stroke:#181818;stroke-width:0.5;" width="180" x="47.5" y="84"/><text fill="#000000" font-family="sans-serif" font-size="12" lengthAdjust="spacing" textLength="160" x="57.5" y="105.1387">Generate a symmetric key</text><rect fill="#F1F1F1" height="33.9688" rx="12.5" ry="12.5" style="stroke:#181818;stroke-width:0.5;" width="128" x="73.5" y="137.9688"/><text fill="#000000" font-family="sans-serif" font-size="12" lengthAdjust="spacing" textLength="108" x="83.5" y="159.1074">Generate a nonce</text><rect fill="#F1F1F1" height="33.9688" rx="12.5" ry="12.5" style="stroke:#181818;stroke-width:0.5;" width="253" x="11" y="191.9375"/><text fill="#000000" font-family="sans-serif" font-size="12" lengthAdjust="spacing" textLength="233" x="21" y="213.0762">Encrypt the message with AES128-CTR</text><rect fill="#F1F1F1" height="33.9688" rx="12.5" ry="12.5" style="stroke:#181818;stroke-width:0.5;" width="236" x="19.5" y="245.9063"/><text fill="#000000" font-family="sans-serif" font-size="12" lengthAdjust="spacing" textLength="216" x="29.5" y="267.0449">Encrypt the symmetric key with RSA</text><rect fill="#F1F1F1" height="33.9688" rx="12.5" ry="12.5" style="stroke:#181818;stroke-width:0.5;" width="251" x="12" y="299.875"/><text fill="#000000" font-family="sans-serif" font-size="12" lengthAdjust="spacing" textLength="231" x="22" y="321.0137">Concatenate and output the ciphertext</text><rect fill="#F1F1F1" height="33.9688" rx="12.5" ry="12.5" style="stroke:#181818;stroke-width:0.5;" width="243" x="299.5" y="84"/><text fill="#000000" font-family="sans-serif" font-size="12" lengthAdjust="spacing" textLength="223" x="309.5" y="105.1387">Read and decrypt the symmetric key</text><rect fill="#F1F1F1" height="33.9688" rx="12.5" ry="12.5" style="stroke:#181818;stroke-width:0.5;" width="274" x="284" y="137.9688"/><text fill="#000000" font-family="sans-serif" font-size="12" lengthAdjust="spacing" textLength="254" x="294" y="159.1074">Read the nonce and decrypt the message</text><rect fill="#F1F1F1" height="33.9688" rx="12.5" ry="12.5" style="stroke:#181818;stroke-width:0.5;" width="143" x="349.5" y="191.9375"/><text fill="#000000" font-family="sans-serif" font-size="12" lengthAdjust="spacing" textLength="123" x="359.5" y="213.0762">Output the message</text><polygon fill="#F1F1F1" points="279.25,339.8438,291.25,351.8438,279.25,363.8438,267.25,351.8438,279.25,339.8438" style="stroke:#181818;stroke-width:0.5;"/><ellipse cx="279.25" cy="393.8438" fill="none" rx="10" ry="10" style="stroke:#222222;stroke-width:1.5;"/><line style="stroke:#222222;stroke-width:2.5;" x1="273.0628" x2="285.4372" y1="387.6566" y2="400.0309"/><line style="stroke:#222222;stroke-width:2.5;" x1="285.4372" x2="273.0628" y1="387.6566" y2="400.0309"/><line style="stroke:#181818;stroke-width:1.0;" x1="137.5" x2="137.5" y1="117.9688" y2="137.9688"/><polygon fill="#181818" points="133.5,127.9688,137.5,137.9688,141.5,127.9688,137.5,131.9688" style="stroke:#181818;stroke-width:1.0;"/><line style="stroke:#181818;stroke-width:1.0;" x1="137.5" x2="137.5" y1="171.9375" y2="191.9375"/><polygon fill="#181818" points="133.5,181.9375,137.5,191.9375,141.5,181.9375,137.5,185.9375" style="stroke:#181818;stroke-width:1.0;"/><line style="stroke:#181818;stroke-width:1.0;" x1="137.5" x2="137.5" y1="225.9063" y2="245.9063"/><polygon fill="#181818" points="133.5,235.9063,137.5,245.9063,141.5,235.9063,137.5,239.9063" style="stroke:#181818;stroke-width:1.0;"/><line style="stroke:#181818;stroke-width:1.0;" x1="137.5" x2="137.5" y1="279.875" y2="299.875"/><polygon fill="#181818" points="133.5,289.875,137.5,299.875,141.5,289.875,137.5,293.875" style="stroke:#181818;stroke-width:1.0;"/><line style="stroke:#181818;stroke-width:1.0;" x1="421" x2="421" y1="117.9688" y2="137.9688"/><polygon fill="#181818" points="417,127.9688,421,137.9688,425,127.9688,421,131.9688" style="stroke:#181818;stroke-width:1.0;"/><line style="stroke:#181818;stroke-width:1.0;" x1="421" x2="421" y1="171.9375" y2="191.9375"/><polygon fill="#181818" points="417,181.9375,421,191.9375,425,181.9375,421,185.9375" style="stroke:#181818;stroke-width:1.0;"/><line style="stroke:#181818;stroke-width:1.0;" x1="200.75" x2="137.5" y1="62" y2="62"/><line style="stroke:#181818;stroke-width:1.0;" x1="137.5" x2="137.5" y1="62" y2="84"/><polygon fill="#181818" points="133.5,74,137.5,84,141.5,74,137.5,78" style="stroke:#181818;stroke-width:1.0;"/><line style="stroke:#181818;stroke-width:1.0;" x1="357.75" x2="421" y1="62" y2="62"/><line style="stroke:#181818;stroke-width:1.0;" x1="421" x2="421" y1="62" y2="84"/><polygon fill="#181818" points="417,74,421,84,425,74,421,78" style="stroke:#181818;stroke-width:1.0;"/><line style="stroke:#181818;stroke-width:1.0;" x1="137.5" x2="137.5" y1="333.8438" y2="351.8438"/><line style="stroke:#181818;stroke-width:1.0;" x1="137.5" x2="267.25" y1="351.8438" y2="351.8438"/><polygon fill="#181818" points="257.25,347.8438,267.25,351.8438,257.25,355.8438,261.25,351.8438" style="stroke:#181818;stroke-width:1.0;"/><line style="stroke:#181818;stroke-width:1.0;" x1="421" x2="421" y1="225.9063" y2="351.8438"/><line style="stroke:#181818;stroke-width:1.0;" x1="421" x2="291.25" y1="351.8438" y2="351.8438"/><polygon fill="#181818" points="301.25,347.8438,291.25,351.8438,301.25,355.8438,297.25,351.8438" style="stroke:#181818;stroke-width:1.0;"/><line style="stroke:#181818;stroke-width:1.0;" x1="279.25" x2="279.25" y1="30" y2="50"/><polygon fill="#181818" points="275.25,40,279.25,50,283.25,40,279.25,44" style="stroke:#181818;stroke-width:1.0;"/><line style="stroke:#181818;stroke-width:1.0;" x1="279.25" x2="279.25" y1="363.8438" y2="383.8438"/><polygon fill="#181818" points="275.25,373.8438,279.25,383.8438,283.25,373.8438,279.25,377.8438" style="stroke:#181818;stroke-width:1.0;"/><!--SRC=[TOyz3i8m38NtdiBg14C7c12T4AeOaGeNY99N6j4uLM84lJqq811KB1xix_quYWgIsOPcsZkds1ITPP3lnNec6-SaBPXcULuWp-SPqNe7Hb02KXG7vo31QZfZA7-Ex5aZBIlMOUXbj2A76DK9TBNIqgOwB9QhOdki9zoNzPEk3vk4RH_6ZmXECMp8NwI_F5NQzYs2u2PbXYuY5JUluZMKIGA3Fpdb6njFwO69uFL0GlUVvFSQR6mppZi0]--></g></svg>