<?xml version="1.0" encoding="us-ascii" standalone="no"?><svg xmlns="http://www.w3.org/2000/svg" xmlns:xlink="http://www.w3.org/1999/xlink" contentStyleType="text/css" height="353px" preserveAspectRatio="none" style="width:288px;height:353px;background:#FFFFFF;" version="1.1" viewBox="0 0 288 353" width="288px" zoomAndPan="magnify"><defs/><g><ellipse cx="144" cy="20" fill="#222222" rx="10" ry="10" style="stroke:#222222;stroke-width:1.0;"/><rect fill="#F1F1F1" height="34.4001" rx="12.5" ry="12.5" style="stroke:#181818;stroke-width:0.5;" width="266" x="11" y="50"/><text fill="#000000" font-family="sans-serif" font-size="12" lengthAdjust="spacing" textLength="158" x="21" y="71.57">Generate primes p, q with</text><text fill="#000000" font-family="monospace" font-size="12" lengthAdjust="spacing" textLength="84" x="183" y="71.1121">miller_rabin</text><rect fill="#F1F1F1" height="33.9688" rx="12.5" ry="12.5" style="stroke:#181818;stroke-width:0.5;" width="61" x="113.5" y="104.4001"/><text fill="#000000" font-family="sans-serif" font-size="12" lengthAdjust="spacing" textLength="41" x="123.5" y="125.5388">n = pq</text><rect fill="#F1F1F1" height="33.9688" rx="12.5" ry="12.5" style="stroke:#181818;stroke-width:0.5;" width="147" x="70.5" y="158.3689"/><text fill="#000000" font-family="sans-serif" font-size="12" lengthAdjust="spacing" textLength="127" x="80.5" y="179.5075">phi(n) = n - p - q + 1</text><rect fill="#F1F1F1" height="36.4766" rx="12.5" ry="12.5" style="stroke:#181818;stroke-width:0.5;" width="132" x="78" y="212.3376"/><text fill="#000000" font-family="sans-serif" font-size="12" lengthAdjust="spacing" textLength="34" x="88" y="235.9841">d = e</text><text fill="#000000" font-family="sans-serif" font-size="9" lengthAdjust="spacing" textLength="8" x="122" y="230.6916">-1</text><text fill="#000000" font-family="sans-serif" font-size="12" lengthAdjust="spacing" textLength="66" x="134" y="235.9841">mod phi(n)</text><rect fill="#F1F1F1" height="33.9688" rx="12.5" ry="12.5" style="stroke:#181818;stroke-width:0.5;" width="228" x="30" y="268.8142"/><text fill="#000000" font-family="sans-serif" font-size="12" lengthAdjust="spacing" textLength="208" x="40" y="289.9528">Output the public and private keys</text><ellipse cx="144" cy="332.7829" fill="none" rx="10" ry="10" style="stroke:#222222;stroke-width:1.5;"/><line style="stroke:#222222;stroke-width:2.5;" x1="137.8128" x2="150.1872" y1="326.5957" y2="338.9701"/><line style="stroke:#222222;stroke-width:2.5;" x1="150.1872" x2="137.8128" y1="326.5957" y2="338.9701"/><line style="stroke:#181818;stroke-width:1.0;" x1="144" x2="144" y1="30" y2="50"/><polygon fill="#181818" points="140,40,144,50,148,40,144,44" style="stroke:#181818;stroke-width:1.0;"/><line style="stroke:#181818;stroke-width:1.0;" x1="144" x2="144" y1="84.4001" y2="104.4001"/><polygon fill="#181818" points="140,94.4001,144,104.4001,148,94.4001,144,98.4001" style="stroke:#181818;stroke-width:1.0;"/><line style="stroke:#181818;stroke-width:1.0;" x1="144" x2="144" y1="138.3689" y2="158.3689"/><polygon fill="#181818" points="140,148.3689,144,158.3689,148,148.3689,144,152.3689" style="stroke:#181818;stroke-width:1.0;"/><line style="stroke:#181818;stroke-width:1.0;" x1="144" x2="144" y1="192.3376" y2="212.3376"/><polygon fill="#181818" points="140,202.3376,144,212.3376,148,202.3376,144,206.3376" style="stroke:#181818;stroke-width:1.0;"/><line style="stroke:#181818;stroke-width:1.0;" x1="144" x2="144" y1="248.8142" y2="268.8142"/><polygon fill="#181818" points="140,258.8142,144,268.8142,148,258.8142,144,262.8142" style="stroke:#181818;stroke-width:1.0;"/><line style="stroke:#181818;stroke-width:1.0;" x1="144" x2="144" y1="302.7829" y2="322.7829"/><polygon fill="#181818" points="140,312.7829,144,322.7829,148,312.7829,144,316.7829" style="stroke:#181818;stroke-width:1.0;"/><!--SRC=[9Own3i8m34JtViKf4mWgrBKjh8ny0ag9fKQqnaaS47-FAmRBTxwJdelwh4r_9QRibI0vhbGWHoHyeivmRetBGlcU_HJPkQ7f6MT8CY5ptF7U7AE5s2GSq5aGx4PZgN9fk_6qRQolW7_VybjLgGgT3LYd9JxWEMpiz_R3axvbQ8Z33m00]--></g></svg>